<?xml version="1.0" encoding="UTF-8" standalone="no"?>
<!-- Created with Inkscape (http://www.inkscape.org/) -->

<svg
   width="210mm"
   height="297mm"
   viewBox="0 0 210 297"
   version="1.1"
   id="svg1"
   xmlns="http://www.w3.org/2000/svg">
  <defs
     id="defs1">
    <rect
       x="214.57963"
       y="343.32741"
       width="81.808484"
       height="37.551435"
       id="rect2" />
    <rect
       x="241.40208"
       y="335.28067"
       width="278.95352"
       height="203.85065"
       id="rect1" />
  </defs>
  <g
     id="layer1">
    <text
       xml:space="preserve"
       transform="scale(0.26458333)"
       id="text1"
       style="white-space:pre;shape-inside:url(#rect1);display:inline;fill:#000000" />
    <text
       xml:space="preserve"
       transform="scale(0.26458333)"
       id="text2"
       style="white-space:pre;shape-inside:url(#rect2);display:inline;fill:#000000"><tspan
         x="214.58008"
         y="556.04633"
         id="tspan3"><tspan
           dx="0 121.40625"
           style="font-size:192px;font-family:Sans;-inkscape-font-specification:'Sans, Normal'"
           id="tspan1">EM</tspan></tspan></text>
    <path
       d="m 120.33632,146.36161 6.01359,4.22455 v -40.54533 l 13.36094,45.452 h 3.83594 l 13.4581,-45.452 v 62.0789 l 6.4363,4.52117 V 99.315385 h -8.93951 L 142.01872,142.47709 129.11305,99.315385 h -8.77673 z"
       style="font-size:63.9734px;font-family:Sans;-inkscape-font-specification:'Sans, Normal';fill:#b2b2b2;fill-opacity:0.86682242;stroke-width:0.319866;stroke-opacity:0"
       id="path31" />
    <path
       d="m 96.647331,129.72128 13.044679,9.16327 h 0.43667 v -9.16327 z"
       style="font-size:63.9734px;font-family:Sans;-inkscape-font-specification:'Sans, Normal';fill:#b2b2b2;fill-opacity:0.86682242;stroke-width:0.319866;stroke-opacity:0"
       id="path30" />
    <path
       d="m 78.238635,116.78977 6.4363,4.52117 V 108.47917 H 110.12868 V 99.315385 H 78.238635 Z"
       style="font-size:63.9734px;font-family:Sans;-inkscape-font-specification:'Sans, Normal';fill:#b2b2b2;fill-opacity:0.86682242;stroke-width:0.319866;stroke-opacity:0"
       id="path29" />
    <path
       d="m 55.698926,100.95663 5.494238,3.85971 h 1.901176 c 0.91517,0 1.710446,0.0987 2.385384,0.29611 0.674938,0.181 1.258377,0.51036 1.750281,0.98753 0.59486,0.55945 1.018018,1.25054 1.26969,2.07326 0.19482,0.597 0.293082,1.28462 0.343648,2.01693 l 3.497461,2.4567 c 0.0664,-0.64783 0.10542,-1.32122 0.10542,-2.03037 0,-1.95807 -0.262876,-3.57044 -0.789099,-4.83743 -0.514783,-1.28344 -1.235532,-2.34461 -2.162142,-3.18378 -0.823653,-0.74045 -1.750109,-1.25093 -2.779675,-1.53066 -1.029567,-0.29618 -2.316397,-0.4439 -3.860747,-0.4439 h -7.155635 z"
       style="font-size:32.0018px;font-family:Sans;-inkscape-font-specification:'Sans, Normal';fill:#b2b2b2;fill-opacity:0.86682242;stroke-width:0.333352;stroke-opacity:0"
       id="path28" />
    <path
       style="fill:#235a2b;fill-opacity:0.703271;stroke:none;stroke-width:0.264583;stroke-opacity:0"
       d="M 71.677419,76.999999 180.25806,154.35484 Z"
       id="path13" />
    <path
       style="fill:#235a2b;fill-opacity:0.703271;stroke:none;stroke-width:0.264583;stroke-opacity:0"
       d="M 17.741935,58.193548 35.129033,90.483869"
       id="path16" />
    <path
       style="fill:#000000;fill-opacity:0.866822;stroke:none;stroke-width:0.264583;stroke-opacity:0"
       d="m 57.927419,162.25 31.225805,14.54839"
       id="path17" />
    <path
       style="fill:#000000;fill-opacity:0.866822;stroke:none;stroke-width:0.264583;stroke-opacity:0"
       d="m 134.57258,146.99194 -27.32257,-3.19355"
       id="path18" />
    <path
       style="fill:#000000;fill-opacity:0.866822;stroke:none;stroke-width:0.264583;stroke-opacity:0"
       d="M 131.37904,174.66936 65.37903,162.95968"
       id="path19" />
    <path
       style="fill:#ff00ff;fill-opacity:0.703271;stroke:none;stroke-width:0.264583;stroke-opacity:0"
       d="m 46.838708,217.16129 38.32258,11"
       id="path20" />
    <path
       style="fill:#ff00ff;fill-opacity:0.703271;stroke:none;stroke-width:0.264583;stroke-opacity:0"
       d="m 103.6129,211.12903 22,11.70968"
       id="path21" />
    <path
       d="m 157.12979,172.14896 v 4.71961 h 6.43682 v -0.19792 z"
       style="font-size:63.9734px;font-family:Sans;-inkscape-font-specification:'Sans, Normal';fill:#000000;fill-opacity:0.866822;stroke-width:0.319866;stroke-opacity:0"
       id="path36" />
    <path
       d="m 120.46123,146.39084 v 30.47773 h 6.01359 v -26.25318 z"
       style="font-size:63.9734px;font-family:Sans;-inkscape-font-specification:'Sans, Normal';fill:#000000;fill-opacity:0.866822;stroke-width:0.319866;stroke-opacity:0"
       id="path35" />
    <path
       d="m 65.634081,142.88925 c -4.034987,0 -7.210792,1.51802 -9.527584,4.55373 -2.305707,3.02104 -3.458704,7.14928 -3.458704,12.38477 0,2.85972 0.310442,5.36023 0.93121,7.50135 0.620767,2.12646 1.501998,3.90118 2.643766,5.32371 1.130683,1.40786 2.499899,2.46383 4.107243,3.16776 1.607343,0.70393 3.375256,1.05575 5.304069,1.05575 1.496492,0 3.043251,-0.30099 4.63951,-0.90227 1.607343,-0.61594 3.087136,-1.33417 4.439522,-2.15542 V 159.76212 H 64.81966 v 3.82716 h 6.63422 v 8.02948 c -0.798129,0.43996 -1.728938,0.79933 -2.793111,1.07797 -1.053087,0.27864 -2.111861,0.41807 -3.176033,0.41807 -2.904304,0 -5.198878,-1.17325 -6.883818,-3.51969 -1.684939,-2.3611 -2.527494,-5.66088 -2.527494,-9.89913 0,-4.01828 0.803362,-7.20079 2.410706,-9.54723 1.618428,-2.3611 3.813329,-3.54138 6.584611,-3.54138 1.230449,0 2.327899,0.1535 3.292305,0.46147 0.975491,0.2933 1.84582,0.66727 2.610693,1.12189 0.631853,0.3813 1.275059,0.85795 1.929082,1.42989 0.654022,0.57195 1.152393,1.034 1.496032,1.38596 h 0.299724 v -5.16919 c -1.696025,-1.07056 -3.28146,-1.82605 -4.755782,-2.26601 -1.463237,-0.45462 -2.898903,-0.68213 -4.306714,-0.68213 z"
       style="font-size:29.7401px;font-family:Sans;-inkscape-font-specification:'Sans, Normal';fill:#000000;fill-opacity:0.866822;stroke-width:0.309792;stroke-opacity:0"
       id="path34" />
    <path
       d="m 78.363536,116.81901 v 60.04956 h 31.890054 v -9.16326 H 84.799836 V 138.91378 H 109.81692 L 96.772232,129.75052 H 84.799836 v -8.41034 z"
       style="font-size:63.9734px;font-family:Sans;-inkscape-font-specification:'Sans, Normal';fill:#000000;fill-opacity:0.866822;stroke-width:0.319866;stroke-opacity:0"
       id="path33" />
    <path
       d="m 55.823827,100.98586 v 36.41484 h 3.397725 v -14.61152 h 4.787305 l 8.545215,14.61152 h 4.410066 l -9.609232,-16.06776 c 1.624427,-0.90499 2.90003,-2.24593 3.82664,-4.02301 0.678502,-1.31329 1.103001,-2.86124 1.284676,-4.63331 l -3.497978,-2.45721 c 0.01774,0.25679 0.05116,0.49862 0.05116,0.77205 0,1.38216 -0.125566,2.5258 -0.377238,3.43079 -0.240232,0.88854 -0.617964,1.67828 -1.132748,2.36937 -0.560541,0.74045 -1.240962,1.25041 -2.041735,1.53014 -0.800774,0.26327 -1.738974,0.39532 -2.814299,0.39532 h -3.431832 v -13.8715 h 2.096513 z"
       style="font-size:32.0018px;font-family:Sans;-inkscape-font-specification:'Sans, Normal';fill:#000000;fill-opacity:0.866822;stroke-width:0.333352;stroke-opacity:0"
       id="path32" />
  </g>
</svg>
